<?xml version="1.0" encoding="utf-8"?>
<svg height="100%" stroke-miterlimit="10" style="fill-rule:nonzero;clip-rule:evenodd;stroke-linecap:round;stroke-linejoin:round;" version="1.1" viewBox="0 0 528 197.605" width="100%" xmlns="http://www.w3.org/2000/svg">
  <g id="Layer-1" transform="matrix(1, 0, 0, 1, 0, -129.39537)">
    <path d="M 67.653 152.247 C 62.08 152.814 22.581 163.475 7.992 165.113 C 5.429 165.401 0 164.606 0 164.606 L 0 187.714 C 0 187.714 7.893 184.395 11.859 183.418 C 21.028 181.159 30.014 177.439 39.445 176.972 C 41.565 176.867 43.313 178.79 45.375 179.293 C 59.734 182.796 72.379 187.156 86.883 192.441 C 88.622 193.075 90.204 194.749 92.039 194.504 C 96.969 193.847 101.362 190.931 106.219 189.863 C 126.591 185.384 140.762 189.09 161.391 189.09 C 168.599 189.09 190.261 186.317 196.711 188.574 C 203.504 190.951 210.702 193.777 217.852 192.957 C 224.566 192.187 230.996 189.66 237.703 188.832 C 244.961 187.936 252.346 188.578 259.617 187.801 C 264.678 187.26 269.487 184.441 274.57 184.707 C 282.703 185.132 290.77 186.473 298.805 187.801 C 301.733 188.285 304.101 190.862 307.055 191.152 C 310.989 191.538 315.042 190.356 318.914 191.152 C 324.373 192.274 329.211 195.571 334.641 196.824 C 337.84 197.562 341.21 195.188 344.437 195.793 C 351.33 197.086 357.62 203.078 364.547 201.98 C 375.717 200.209 386.127 195.183 397.031 192.183 C 402.198 190.761 405.903 201.495 410.638 198.985 C 414.808 196.774 419.966 192.599 424.359 190.875 C 431.08 188.238 438.811 191.332 446.016 190.875 C 454.323 190.348 465.503 178.357 474.117 180.066 C 481.215 181.474 487.811 185.167 495 185.996 C 497.177 186.247 498.956 184.112 500.93 183.16 C 506.261 180.589 513.138 179.984 516.914 175.426 C 518.744 173.217 511.261 174.412 508.406 174.137 C 504.121 173.724 499.785 173.916 495.516 173.363 C 488.244 172.42 481.192 169.556 473.859 169.496 C 470.065 169.465 466.537 171.598 462.773 172.074 C 450.354 173.644 434.551 174.726 422.812 170.012 C 414 166.473 406.105 160.694 397.031 157.894 C 389.749 155.647 381.709 157.016 374.344 155.058 C 362.302 151.856 352.026 143.839 340.312 139.59 C 329.11 135.527 308.741 130.61 296.742 129.535 C 288.395 128.787 280.069 131.247 271.734 132.113 C 263.286 132.991 247.285 130.754 240.023 133.402 C 234.354 135.469 229.479 139.408 223.781 141.394 C 220.005 142.71 215.744 142.023 211.922 143.199 C 196.7 147.883 182.241 155.005 166.805 158.926 C 160.722 160.471 154.214 158.686 147.984 159.441 C 142.811 160.068 137.977 162.782 132.773 163.051 C 126.694 163.365 120.889 160.402 114.984 158.926 C 109.044 157.441 99.905 163.891 94.708 160.652 C 89.722 157.545 79.616 151.029 67.653 152.247 Z" fill="#b1cdd9" fill-rule="nonzero" opacity="1" stroke="none"/>
    <path d="M 94.708 189.234 C 97.65 193.353 106.007 194.28 110.692 195.68 C 116.304 197.357 122.164 198.173 127.708 200.062 C 132.838 201.81 138.457 205.764 143.692 206.766 C 153.294 208.604 172.477 214.073 179.207 214.363 C 191.694 214.901 219.275 223.106 225.06 225.069 C 228.642 226.284 232.556 226.258 236.041 227.728 C 238.06 228.58 244.797 234.299 246.986 234.219 C 252.452 234.019 331.092 261.399 388.498 240.914 C 403.29 235.636 403.33 228.886 413.88 221.719 C 417.664 219.148 422.338 218.151 426.255 215.789 C 428.235 214.595 429.31 212.113 431.411 211.148 C 435.809 209.127 446.519 209.855 450.848 207.691 C 461.24 202.495 464.555 194.956 475.1 190.076 C 478.206 188.639 482.954 188.532 486.098 187.179 C 489.768 185.6 503.958 181.083 503.958 181.083 C 503.958 181.083 486.893 179.757 478.75 179.073 C 470.465 178.377 466.411 181.438 458.154 180.467 C 450.919 179.616 418.106 189.2 414.946 190.875 C 409.207 193.918 397.773 186.061 391.536 187.875 C 379.954 191.244 376.036 197.271 363.349 196.711 C 356.833 196.423 351.156 191.926 344.786 190.523 C 341.496 189.798 338.069 192.01 334.731 191.555 C 329.21 190.802 324.505 186.78 319.005 185.883 C 315.188 185.261 311.231 186.43 307.403 185.883 C 300.947 184.96 295.223 181.039 288.841 179.695 C 279.072 177.638 268.931 181.673 259.708 182.531 C 253.889 183.072 247.993 182.217 242.177 182.789 C 226.23 184.358 225.947 189.804 208.403 187.687 C 204.139 187.172 191.299 180.027 184.45 179.776 C 166.5 179.118 160.358 184.319 142.403 183.82 C 138.629 183.715 135.087 181.296 131.317 181.5 C 122.189 181.994 113.27 184.422 104.247 185.883" fill="#94b7b2" fill-rule="nonzero" opacity="1" stroke="none"/>
    <path d="M 0 208.565 C 5.063 208.565 10.246 207.777 15.28 207.236 C 19.76 206.754 36.097 208.537 40.31 209.602 C 44.063 210.551 49.801 216.093 51.911 216.721 C 55.184 217.696 74.224 214.36 81.302 218.784 C 86.173 221.828 90.505 225.697 94.708 229.612 C 98.481 233.127 100.127 239.91 105.164 241.012 C 111.692 242.44 117.937 236.427 124.614 236.156 C 127.579 236.036 133.031 245.226 134.313 245.979 C 138.15 248.231 167.349 255.06 175.661 253.501 C 179.733 252.737 209.611 238.862 217.169 236.156 C 219.739 235.236 221.69 232.706 224.388 232.289 C 230.343 231.368 236.914 233.672 242.435 231.258 C 243.83 230.648 256.999 232.656 255.96 231.543 C 254.05 229.497 240.782 226.637 235.909 225.706 C 228.862 224.359 225.426 222.139 218.458 220.43 C 205.805 217.327 192.506 208.838 179.528 207.797 C 167.87 206.862 156.127 207.405 144.466 206.508 C 139.068 206.093 130.416 200.179 124.872 198.516 C 117.863 196.414 109.015 195.235 102.185 192.844 C 99.82 192.016 97.242 189.736 94.966 188.977 C 88.769 186.911 80.041 186.01 73.825 183.82 C 58.018 178.25 48.138 173.131 31.286 171.703 C 27.622 171.393 5.031 181.505 0 183.184 L 0 208.565 Z" fill="#577d6f" fill-rule="nonzero" opacity="1" stroke="none"/>
    <path d="M 191.071 259.508 C 200.14 262.731 207.449 270.403 216.807 272.634 C 221.85 273.837 235.988 275.224 242.894 276.218 C 245.217 276.552 249.02 275.594 251.248 276.332 C 256.12 277.946 261.099 279.614 265.403 282.419 C 270.486 285.732 271.828 286.919 277.265 289.604 C 282.049 291.966 288.092 288.174 293.254 289.507 C 296.453 290.334 297.991 294.342 300.99 295.733 C 308.868 299.39 316.846 304.653 325.52 304.487 C 333.794 304.329 339.1 294.958 346.118 290.545 C 350.65 287.695 356.51 287.205 361.849 287.432 C 364.416 287.54 366.809 289.063 368.896 290.57 C 412.021 321.727 527.917 292.513 527.929 292.363 C 527.929 292.363 528.088 167.754 527.929 168.168 C 527.929 168.168 517.086 171.079 513.223 173.022 C 505.064 177.127 496.179 181.745 487.434 184.438 C 471.974 189.198 463.578 197.485 449.011 205.192 C 443.573 208.069 436.859 207.921 431.475 210.9 C 425.495 214.208 419.471 217.514 413.94 221.536 C 405.373 227.765 399.763 234.655 388.668 237.88 C 369.615 243.418 368.734 235.227 356.346 241.196 C 349.372 244.557 331.248 234.545 323.823 232.516 C 316.94 230.634 306.64 220.631 296.798 219.598 C 290.885 218.978 281.748 220.488 278.758 221.105 C 264.815 223.987 259.873 226.462 246.32 230.357 C 239.271 232.384 231.639 230.998 224.401 232.173 C 221.705 232.61 219.751 235.139 217.18 236.065 C 210.84 238.348 203.735 238.242 197.581 240.994 C 195.49 241.928 194.071 244.134 191.908 244.885 C 187.892 246.278 183.448 246.027 179.393 247.301 C 173.994 248.997 164.391 250.024 191.071 259.508 Z" fill="#4a6854" fill-rule="nonzero" opacity="1" stroke="none" style=""/>
    <path d="M 0 190.076 C -0.086 235.451 0.091 327 0.091 327 L 528 327 L 527.912 262.308 C 523.656 261.599 518.585 260.916 516.078 260.885 C 510.8 260.82 503.095 259.486 498.504 262.568 C 493.214 266.119 491.044 270.628 483.922 271.784 C 480.322 272.368 473.18 273.304 469.644 272.757 C 466.442 272.262 464.941 274.831 462.239 275.77 C 459.556 276.702 456.51 275.845 453.818 277.026 C 450.599 278.438 448.545 282.107 445.623 284.042 C 441.933 286.485 437.246 286.299 433.383 288.328 C 431.244 289.451 430.506 292.275 428.292 293.263 C 425.612 294.459 422.159 292.784 419.359 293.66 C 416.642 294.51 415.066 296.809 412.039 296.937 C 396.929 297.576 384.909 285.659 370.121 284.853 C 364.009 284.52 353.026 286.689 347.579 288.849 C 345.159 289.808 340.778 290.494 338.461 290.962 C 332.838 292.099 330.232 293.538 324.586 293.484 C 318.143 293.422 315.14 295.549 308.247 294.715 C 301.982 293.957 298.48 290.437 293.391 288.586 C 288.54 286.822 281.48 286.348 277.148 283.688 C 273.348 281.355 270.536 277.617 266.603 275.49 C 261.995 272.997 256.512 273.065 251.591 271.805 C 249.183 271.188 247.262 269.142 244.938 268.232 C 237.955 265.498 228.965 271.212 221.616 268.822 C 211.62 265.571 205.151 253.758 194.828 250.982 C 184.408 248.18 168.237 249.017 157.523 248.625 C 154.937 248.53 152.842 246.575 150.305 246.305 C 147.577 246.015 141.497 245.296 138.768 244.681 C 132.544 243.278 130.473 238.113 124.523 235.992 C 119.662 234.259 112.307 234.781 108.243 231.568 C 101.021 225.857 87.21 217.16 78.651 213.74 C 60.221 206.374 56.976 211.449 40.219 209.438 C 35.289 208.846 31.736 204.927 27.09 203.584 C 23.704 202.605 20.325 202.628 17.273 200.672 L 0 190.076 Z" fill="#000000" fill-rule="nonzero" opacity="1" stroke="none"/>
  </g>
</svg>